<?xml version="1.0" encoding="UTF-8" standalone="no"?>
<svg
   xmlns:dc="http://purl.org/dc/elements/1.1/"
   xmlns:cc="http://creativecommons.org/ns#"
   xmlns:rdf="http://www.w3.org/1999/02/22-rdf-syntax-ns#"
   xmlns:svg="http://www.w3.org/2000/svg"
   xmlns="http://www.w3.org/2000/svg"
   id="svg3789"
   version="1.1"
   viewBox="0 0 144.88544 154.47235"
   height="154.47235mm"
   width="144.88544mm">
  <defs
     id="defs3783" />
  <metadata
     id="metadata3786">
    <rdf:RDF>
      <cc:Work
         rdf:about="">
        <dc:format>image/svg+xml</dc:format>
        <dc:type
           rdf:resource="http://purl.org/dc/dcmitype/StillImage" />
        <dc:title></dc:title>
      </cc:Work>
    </rdf:RDF>
  </metadata>
  <g
     transform="translate(-43.217995,-75.376923)"
     id="layer1">
    <rect
       ry="7.7645268"
       y="75.376923"
       x="43.217995"
       height="144.88544"
       width="144.88544"
       id="rect18-3"
       style="fill:#ffdd44;fill-opacity:1;stroke-width:0.72963893" />
    <path
       d="m 95.122102,229.84927 c 16.525918,0 21.667308,-11.13969 21.667308,-24.36042 V 145.13866 H 98.794532 v 60.83985 c 0,6.73278 -1.59139,9.79313 -6.36554,9.79313 -1.7138,0 -3.18277,-0.36724 -4.77415,-0.8569 l -3.18277,13.22073 c 2.44828,0.97932 5.63105,1.7138 10.65003,1.7138 z m 12.731078,-93.64685 c 5.99829,0 10.4052,-3.91725 10.4052,-9.42589 0,-5.50864 -4.40691,-9.30348 -10.4052,-9.30348 -5.9983,0 -10.405208,3.79484 -10.405208,9.30348 0,5.50864 4.406908,9.42589 10.405208,9.42589 z"
       style="font-style:normal;font-variant:normal;font-weight:bold;font-stretch:normal;font-size:122.41418457px;line-height:1.25;font-family:'Source Sans Pro';-inkscape-font-specification:'Source Sans Pro, Bold';font-variant-ligatures:normal;font-variant-caps:normal;font-variant-numeric:normal;font-feature-settings:normal;text-align:start;letter-spacing:0px;word-spacing:0px;writing-mode:lr-tb;text-anchor:start;fill:#000000;fill-opacity:1;stroke:none;stroke-width:3.06033254"
       id="path43" />
    <path
       d="m 150.49541,207.32506 c 16.28108,0 24.97249,-8.56899 24.97249,-19.58627 0,-11.13969 -8.69141,-15.42418 -16.4035,-18.23971 -6.24312,-2.32587 -11.87418,-3.79484 -11.87418,-7.71209 0,-3.06036 2.20346,-4.77416 6.8552,-4.77416 4.28449,0 8.44658,1.95863 12.85349,5.1414 l 8.07933,-10.77245 c -5.26381,-3.91725 -12.119,-7.71209 -21.42248,-7.71209 -14.07763,0 -23.25869,7.71209 -23.25869,18.97419 0,10.03797 8.6914,15.05695 16.03625,17.87248 6.24313,2.44828 12.36384,4.28449 12.36384,8.32416 0,3.18277 -2.32587,5.1414 -7.7121,5.1414 -5.14139,0 -10.16037,-2.20346 -15.66901,-6.36554 l -8.07934,11.2621 c 6.12071,5.01898 15.30177,8.44658 23.2587,8.44658 z"
       style="font-style:normal;font-variant:normal;font-weight:bold;font-stretch:normal;font-size:122.41418457px;line-height:1.25;font-family:'Source Sans Pro';-inkscape-font-specification:'Source Sans Pro, Bold';font-variant-ligatures:normal;font-variant-caps:normal;font-variant-numeric:normal;font-feature-settings:normal;text-align:start;letter-spacing:0px;word-spacing:0px;writing-mode:lr-tb;text-anchor:start;fill:#000000;fill-opacity:1;stroke:none;stroke-width:3.06033254"
       id="path45" />
  </g>
</svg>
