<?xml version="1.0" encoding="UTF-8" standalone="no"?>
<svg
   xmlns:dc="http://purl.org/dc/elements/1.1/"
   xmlns:cc="http://creativecommons.org/ns#"
   xmlns:rdf="http://www.w3.org/1999/02/22-rdf-syntax-ns#"
   xmlns:svg="http://www.w3.org/2000/svg"
   xmlns="http://www.w3.org/2000/svg"
   xmlns:sodipodi="http://sodipodi.sourceforge.net/DTD/sodipodi-0.dtd"
   xmlns:inkscape="http://www.inkscape.org/namespaces/inkscape"
   id="svg16"
   version="1.1"
   viewBox="0 0 347.71558 154.47244"
   height="437.87463pt"
   width="985.65045pt"
   sodipodi:docname="logo.svg"
   inkscape:version="0.92.3 (2405546, 2018-03-11)">
  <sodipodi:namedview
     pagecolor="#ffffff"
     bordercolor="#666666"
     borderopacity="1"
     objecttolerance="10"
     gridtolerance="10"
     guidetolerance="10"
     inkscape:pageopacity="0"
     inkscape:pageshadow="2"
     inkscape:window-width="1920"
     inkscape:window-height="1080"
     id="namedview123"
     showgrid="false"
     inkscape:zoom="0.50097656"
     inkscape:cx="795.29091"
     inkscape:cy="258.00005"
     inkscape:window-x="0"
     inkscape:window-y="0"
     inkscape:window-maximized="1"
     inkscape:current-layer="svg16"
     fit-margin-top="0"
     fit-margin-left="0"
     fit-margin-right="0"
     fit-margin-bottom="0" />
  <defs
     id="defs10" />
  <metadata
     id="metadata13">
    <rdf:RDF>
      <cc:Work
         rdf:about="">
        <dc:format>image/svg+xml</dc:format>
        <dc:type
           rdf:resource="http://purl.org/dc/dcmitype/StillImage" />
        <dc:title></dc:title>
      </cc:Work>
    </rdf:RDF>
  </metadata>
  <rect
     style="fill:#ffdd44;fill-opacity:1;stroke-width:0.72963893"
     id="rect18"
     width="144.88544"
     height="144.88544"
     x="55.483738"
     y="2.8421709e-14"
     ry="7.7645268" />
  <g
     aria-label="rejstry"
     style="font-style:normal;font-variant:normal;font-weight:bold;font-stretch:normal;font-size:122.41418457px;line-height:1.25;font-family:'Source Sans Pro';-inkscape-font-specification:'Source Sans Pro, Bold';font-variant-ligatures:normal;font-variant-caps:normal;font-variant-numeric:normal;font-feature-settings:normal;text-align:start;letter-spacing:0px;word-spacing:0px;writing-mode:lr-tb;text-anchor:start;fill:#000000;fill-opacity:1;stroke:none;stroke-width:3.06033254"
     id="text4581-4"
     transform="translate(-6.7644343,-12.807623)">
    <path
       d="M 6.7644343,143.28688 H 24.759319 V 108.0316 c 3.182769,-8.201755 8.813822,-11.139695 13.343147,-11.139695 2.570697,0 4.40691,0.367242 6.610365,0.979313 l 2.937941,-15.546601 c -1.713799,-0.734486 -3.79484,-1.224142 -7.222437,-1.224142 -6.243123,0 -12.853489,3.917254 -17.2604,12.119004 H 22.678278 L 21.454136,82.569445 H 6.7644343 Z"
       style="font-style:normal;font-variant:normal;font-weight:bold;font-stretch:normal;font-size:122.41418457px;font-family:'Source Sans Pro';-inkscape-font-specification:'Source Sans Pro, Bold';font-variant-ligatures:normal;font-variant-caps:normal;font-variant-numeric:normal;font-feature-settings:normal;text-align:start;writing-mode:lr-tb;text-anchor:start;stroke-width:3.06033254"
       id="path134"
       inkscape:connector-curvature="0" />
    <path
       d="m 81.519332,144.75585 c 7.222437,0 15.301773,-2.5707 21.544898,-6.85519 l -5.998296,-10.89487 c -4.406911,2.69312 -8.568993,4.03967 -13.098318,4.03967 -8.079336,0 -14.200045,-4.03967 -15.79143,-12.85349 H 104.5332 c 0.36724,-1.46897 0.73448,-4.77415 0.73448,-7.95692 0,-16.525914 -8.568989,-29.134575 -25.829389,-29.134575 -14.567288,0 -28.644919,12.119004 -28.644919,31.827685 0,20.07593 13.343146,31.82769 30.72596,31.82769 z M 68.053772,106.3178 c 1.224142,-7.712097 6.120709,-11.506937 11.751762,-11.506937 7.222437,0 10.160377,4.774154 10.160377,11.506937 z"
       style="font-style:normal;font-variant:normal;font-weight:bold;font-stretch:normal;font-size:122.41418457px;font-family:'Source Sans Pro';-inkscape-font-specification:'Source Sans Pro, Bold';font-variant-ligatures:normal;font-variant-caps:normal;font-variant-numeric:normal;font-feature-settings:normal;text-align:start;writing-mode:lr-tb;text-anchor:start;stroke-width:3.06033254"
       id="path136"
       inkscape:connector-curvature="0" />
    <path
       d="m 114.15227,167.28006 c 16.52592,0 21.66731,-11.13969 21.66731,-24.36042 V 82.569445 H 117.8247 v 60.839845 c 0,6.73278 -1.59138,9.79314 -6.36554,9.79314 -1.7138,0 -3.18277,-0.36724 -4.77415,-0.8569 l -3.18277,13.22073 c 2.44828,0.97932 5.63105,1.7138 10.65003,1.7138 z m 12.73108,-93.646851 c 5.99829,0 10.4052,-3.917253 10.4052,-9.425892 0,-5.508638 -4.40691,-9.303478 -10.4052,-9.303478 -5.9983,0 -10.40521,3.79484 -10.40521,9.303478 0,5.508639 4.40691,9.425892 10.40521,9.425892 z"
       style="font-style:normal;font-variant:normal;font-weight:bold;font-stretch:normal;font-size:122.41418457px;font-family:'Source Sans Pro';-inkscape-font-specification:'Source Sans Pro, Bold';font-variant-ligatures:normal;font-variant-caps:normal;font-variant-numeric:normal;font-feature-settings:normal;text-align:start;writing-mode:lr-tb;text-anchor:start;stroke-width:3.06033254"
       id="path138"
       inkscape:connector-curvature="0" />
    <path
       d="m 169.52558,144.75585 c 16.28108,0 24.97249,-8.56899 24.97249,-19.58627 0,-11.13969 -8.69141,-15.42419 -16.4035,-18.23971 -6.24312,-2.32587 -11.87418,-3.79484 -11.87418,-7.712096 0,-3.060355 2.20346,-4.774153 6.8552,-4.774153 4.28449,0 8.44658,1.958627 12.85349,5.141396 l 8.07933,-10.772449 c -5.26381,-3.917254 -12.119,-7.712093 -21.42248,-7.712093 -14.07763,0 -23.25869,7.712093 -23.25869,18.974195 0,10.03797 8.6914,15.05695 16.03625,17.87247 6.24313,2.44829 12.36384,4.2845 12.36384,8.32417 0,3.18277 -2.32587,5.14139 -7.7121,5.14139 -5.14139,0 -10.16037,-2.20345 -15.66901,-6.36553 l -8.07934,11.2621 c 6.12071,5.01898 15.30178,8.44658 23.2587,8.44658 z"
       style="font-style:normal;font-variant:normal;font-weight:bold;font-stretch:normal;font-size:122.41418457px;font-family:'Source Sans Pro';-inkscape-font-specification:'Source Sans Pro, Bold';font-variant-ligatures:normal;font-variant-caps:normal;font-variant-numeric:normal;font-feature-settings:normal;text-align:start;writing-mode:lr-tb;text-anchor:start;stroke-width:3.06033254"
       id="path140"
       inkscape:connector-curvature="0" />
    <path
       d="m 226.91678,144.75585 c 5.87588,0 10.2828,-1.22414 13.46556,-2.20345 l -2.81552,-13.09832 c -1.59139,0.61207 -3.79484,1.22414 -5.75347,1.22414 -4.77415,0 -7.83451,-2.81553 -7.83451,-9.67072 V 96.647076 h 14.56729 V 82.569445 H 223.97884 V 66.410773 h -14.93453 l -2.08104,16.158672 -9.30348,0.734485 v 13.343146 h 8.32417 v 24.605254 c 0,14.07763 5.87588,23.50352 20.93282,23.50352 z"
       style="font-style:normal;font-variant:normal;font-weight:bold;font-stretch:normal;font-size:122.41418457px;font-family:'Source Sans Pro';-inkscape-font-specification:'Source Sans Pro, Bold';font-variant-ligatures:normal;font-variant-caps:normal;font-variant-numeric:normal;font-feature-settings:normal;text-align:start;writing-mode:lr-tb;text-anchor:start;stroke-width:3.06033254"
       id="path142"
       inkscape:connector-curvature="0" />
    <path
       d="m 250.39735,143.28688 h 17.99489 V 108.0316 c 3.18277,-8.201755 8.81382,-11.139695 13.34314,-11.139695 2.5707,0 4.40692,0.367242 6.61037,0.979313 l 2.93794,-15.546601 c -1.7138,-0.734486 -3.79484,-1.224142 -7.22244,-1.224142 -6.24312,0 -12.85349,3.917254 -17.2604,12.119004 h -0.48965 l -1.22414,-10.650034 h -14.68971 z"
       style="font-style:normal;font-variant:normal;font-weight:bold;font-stretch:normal;font-size:122.41418457px;font-family:'Source Sans Pro';-inkscape-font-specification:'Source Sans Pro, Bold';font-variant-ligatures:normal;font-variant-caps:normal;font-variant-numeric:normal;font-feature-settings:normal;text-align:start;writing-mode:lr-tb;text-anchor:start;stroke-width:3.06033254"
       id="path144"
       inkscape:connector-curvature="0" />
    <path
       d="m 306.86089,167.03523 c 14.32246,0 20.81041,-7.83451 26.56388,-23.13628 l 21.05524,-61.329505 h -17.2604 l -7.34485,26.074225 c -1.46897,5.75346 -2.81553,11.50693 -4.16208,17.2604 h -0.48966 c -1.59138,-5.9983 -3.06035,-11.75177 -4.77415,-17.2604 l -8.69141,-26.074225 h -18.1173 l 23.38111,59.126055 -0.8569,3.18276 c -1.59138,4.77416 -4.65174,7.95693 -10.65003,7.95693 -1.34656,0 -2.93794,-0.48966 -4.03967,-0.73449 l -3.18277,13.71039 c 2.44828,0.73449 4.89657,1.22414 8.56899,1.22414 z"
       style="font-style:normal;font-variant:normal;font-weight:bold;font-stretch:normal;font-size:122.41418457px;font-family:'Source Sans Pro';-inkscape-font-specification:'Source Sans Pro, Bold';font-variant-ligatures:normal;font-variant-caps:normal;font-variant-numeric:normal;font-feature-settings:normal;text-align:start;writing-mode:lr-tb;text-anchor:start;stroke-width:3.06033254"
       id="path146"
       inkscape:connector-curvature="0" />
  </g>
</svg>
