<?xml version="1.0" standalone="no"?>
<!DOCTYPE svg PUBLIC "-//W3C//DTD SVG 20010904//EN"
 "http://www.w3.org/TR/2001/REC-SVG-20010904/DTD/svg10.dtd">
<svg version="1.0" xmlns="http://www.w3.org/2000/svg"
 width="700.000000pt" height="700.000000pt" viewBox="0 0 700.000000 700.000000"
 preserveAspectRatio="xMidYMid meet">
<metadata>
Created by potrace 1.11, written by Peter Selinger 2001-2013
</metadata>
<g transform="translate(0.000000,700.000000) scale(0.100000,-0.100000)"
fill="#000000" stroke="none">
<path d="M3580 6434 c-299 -40 -639 -210 -880 -438 -182 -173 -309 -349 -450
-626 -68 -133 -140 -251 -224 -363 -71 -96 -84 -111 -193 -226 -105 -111 -119
-128 -184 -214 -32 -43 -60 -85 -60 -93 -1 -8 -2 -20 -3 -26 -1 -7 15 -47 35
-88 49 -98 65 -162 84 -335 2 -22 7 -65 10 -95 6 -57 7 -64 21 -165 11 -74 12
-285 2 -343 -15 -86 -38 -218 -43 -242 -3 -14 -7 -41 -10 -60 -3 -19 -28 -152
-55 -295 -28 -143 -53 -271 -56 -285 -3 -14 -7 -32 -9 -40 -3 -8 -7 -33 -10
-55 -4 -22 -10 -56 -15 -75 -5 -19 -11 -46 -14 -60 -2 -14 -14 -68 -26 -120
-12 -52 -23 -106 -26 -120 -3 -14 -11 -50 -19 -80 -8 -30 -16 -67 -19 -81 -7
-41 -64 -251 -103 -384 -106 -355 -251 -601 -425 -722 -40 -27 -45 -28 -177
-28 -78 -1 -147 -6 -161 -12 -51 -23 -91 -68 -110 -122 -35 -105 -9 -213 71
-289 47 -46 181 -116 244 -128 22 -4 47 -9 55 -11 8 -2 65 -6 127 -8 142 -4
229 16 373 87 255 125 468 327 592 563 127 240 271 696 427 1350 41 173 131
564 137 595 20 102 177 740 201 815 21 67 85 194 135 269 23 33 83 102 133
151 77 76 127 112 323 235 254 158 255 160 211 224 -39 57 -109 102 -299 191
-76 36 -130 84 -162 145 -21 40 -23 59 -24 175 0 71 3 155 7 185 4 30 10 78
13 105 10 76 55 252 84 325 33 82 85 172 128 219 73 82 204 117 285 76 41 -21
130 -86 182 -134 97 -90 210 -151 285 -153 83 -3 139 19 202 82 144 143 202
356 137 502 -14 31 -43 73 -63 94 -49 47 -160 98 -260 119 -97 21 -307 25
-424 9z"/>
<path d="M5167 4754 c-1 -1 -42 -4 -92 -8 -78 -5 -147 -17 -244 -40 -265 -62
-573 -267 -726 -481 -124 -174 -167 -315 -161 -530 4 -137 5 -147 32 -229 39
-119 87 -191 199 -301 153 -149 259 -227 704 -514 156 -100 202 -144 243 -230
25 -53 31 -80 34 -147 4 -92 -10 -144 -53 -207 -25 -37 -118 -108 -173 -135
-124 -59 -437 -51 -539 14 -72 47 -153 140 -267 304 -73 106 -160 195 -216
220 -84 38 -183 20 -242 -44 -47 -52 -50 -56 -79 -126 -47 -114 -58 -178 -58
-340 0 -116 1 -128 20 -194 42 -153 178 -232 476 -276 44 -7 89 -14 100 -17
36 -9 649 -12 710 -3 33 4 76 11 95 13 49 7 185 41 245 62 297 103 588 345
715 595 58 115 74 191 74 355 1 166 -4 206 -34 315 -63 222 -227 390 -600 611
-505 300 -578 367 -588 544 -11 199 156 354 386 358 92 1 134 -6 196 -33 100
-42 172 -105 284 -246 134 -168 223 -236 311 -236 173 -2 283 198 283 513 -1
224 -47 299 -225 357 -51 17 -110 33 -132 36 -22 3 -71 10 -110 15 -105 15
-555 35 -568 25z"/>
</g>
</svg>
